<svg xmlns="http://www.w3.org/2000/svg" viewBox="0 0 2970.466 1202.19" role="img" aria-label="OpenFishing">
  <defs>
    <style>
      .cls-1 {
        fill: currentColor;
        fill-rule: evenodd;
      }
    </style>
  </defs>
  <path id="Form_5" data-name="Form 5" class="cls-1" d="M411,458c26.758,2.437,55.433.009,80,6l50,10c29.167,9.483,56.77,18.906,83,31,15.727,7.251,32.493,17.855,46,28,10.669,8.013,19.822,23,34,27h44c11.3,2.494,27.467-1.777,40,1,12.825,2.842,28.236-1.063,42,2,28.081,6.248,59.9,2.033,87,9,111.55,28.682,200.03,75.419,282,133,31.78,22.325,65.79,43.2,89,74,6.49,8.616,19.7,16.882,22,29-3.59,6.031-1.95,15.741-4,23-4.37,15.47-11.04,24.974-19,36-1.94,2.688-4.09,9.624-7,11h-19a63.8,63.8,0,0,1,6-24h-6v-6h-1c-2.65,1.531-7.13.1-11,1-11.73,2.736-23.78,3.285-35,7-42.41,14.035-73.65,36.721-107,59-6.58,4.395-33.37,18.779-36,24,7.11,4.579,12.51,11.318,21,15,27.96,12.127,74.49,16.111,110,19,2.08-7,7.94-11.053,10-19,1.47-5.653-1.23-14.234,3-17,12.75,15.208,43.08,13.961,47,39-3.18,4-3.28,10.574-6,15-4.96,8.079-13.4,17.49-21,23-61.35,44.48-166.46,45.22-253,64-10.071,2.19-35.373.84-44-1q-23.5-.495-47-1-11.5-.495-23-1c-16.75,4.66-33.961,15.87-47,25-13.531,9.48-24.255,15.3-24,39-28.92-3.82-42.768,1.83-65,8,3.492-28.22-24.608-41.2-55-34-7.789,1.85-13.474,1.25-19,5-3.442,2.33-7.783,8.6-9,13-1.822,6.58,1.809,18.55-3,22-1.895,1.52-3.59,1.79-7,2-4.726-5.99-11.855-10.37-18-15-7.867-5.93-14.14-15.06-22-21-5.975-4.52-17.281-9.62-18-19q-5-22.005-10-44c-12.289-37.18-29.169-67.942-70-77-9.251-2.052-16.887,2.008-24,3-0.981-9.1-10.547-27.878-16-33,9.379-13.962,31.437-34.754,45-45,7.48-5.65,13.445-14.348,21-20,19.306-14.444,38.88-28.3,60-41,12.782-7.687,31.606-11,46-16,23.971-8.333,68.311-25.626,85-3,18.379,24.917,13.328,76.976,26,108,18.857,46.167,58.213,55.852,98,80,7.782,4.72,16.345,9.64,24,15,1.776,1.24,4.073,5.17,6,6h24v-5c-70.587-14.69-107.51-73.636-126-141-11.34-41.317-5.908-100.011,8-134,9.084-22.2,22.21-43.245,38-59,5.685-5.673,24.9-16.13,26-24h-2c-4.887,4.494-12.376,6.279-18,10-13.025,8.618-34.867,25.878-44,38-10.4,13.811-22.793,26.288-33,40-3.428,4.605-6.3,10.8-11,14-7.619,5.182-16.681,6.557-26,10-28.453,10.512-61.478,14.167-92,24-32.4,10.438-58.617,23.1-84,40a485.225,485.225,0,0,0-73,60c-8.135,8.136-18.585,25.771-33,26-7.172,4.366-22.7,3.65-31,7-25.574,10.327-68.354,39.115-80,62q-22.5,5-45,10v-1l17-58c15.058-40.347,28.733-82.192,50-117,8.69-14.223,18.13-28.668,28-42,5.073-6.852,15.23-11.192,16-22a52.137,52.137,0,0,0-46,29c-1.754-.631-0.971-0.193-2-1-6.214-6.442-7.55-16.7-11-26-6.165-16.628-11.553-35.707-19-51,45.474-27.448,73.975-78.227,92-133,6.135-18.642,8.352-39.142,13-59C413.039,508.47,410.852,482.9,411,458ZM2537,601c28.87,0.52,62.88,22.248,81,35,49.51,34.852,80.39,86.257,105,146,10.77,26.148,16.58,54.811,25,83,4.33,14.5,3.86,30.574,11,42,6.21,9.936,17.66,16.05,27,23l15,16v-1c5.51-2.864,8.41-8.622,15-10,3.36,3.075,9.32,3.132,13,6,5.16,6.011,4.36,13.02,16,13,4.69-3.781,33.33-18.525,39-16,6.71,1.376,25.92,26.744,30,33,3.55-.689,8.08-2.289,11-3,5.74-1.395,10.53,1.389,13,1l14,1c1.79-.7,2.27-3.041,5-4,3.24,8.78,40.08,20.4,50,27,26.23,17.45,57.19,44.1,76,69,4.09,5.41,10.91,9.57,15,15,18.01,23.88,36.09,47.99,52,74,15.46,25.27,26.34,54.5,38,83,9.53,23.3,11.37,47.47,18,74,5.01,20.05,12.27,70.99,7,95v18c-4.39,19.62-3.74,40.37-9,59-9.09,32.17-18.5,62.64-34,88-22.66,37.08-43.79,64.27-86,82-11.15,4.68-37.41,13.39-56,9-43.18-10.19-76.38-37.21-97-70-3.81-6.06-4.27-13.55-8-20-25.76-44.54-42.58-84.28-93-105v23c1.95,3.02.38,23.35,0,30-1.6,28.4-8.33,56.16-20,75-9.34,15.07-18.93,27.86-36,35-18.48,7.73-51.7,5.94-72,1l-22-3c-46.72-13.11-95.81-27.59-116-67-16.52-32.24-.26-66.22,20-81,3-2.19,5.81-6,9-8,32.37-20.24,75.64-25.3,118-36,23.38-5.9,49.07-3.34,71-11,0.75-11.76,2.91-22.27,3-36h-1c-12.33,19.65-54.82,44.79-88,30-13.76-6.13-23.23-22.81-29-37-6.05-14.88-5.17-29.91-9-48-11.63-54.9,11.14-123.06,31-155,3.54-5.7,9.08-10.75,13-16,10.38-13.9,36.53-36.61,65-28,15.41,4.66,23.55,14.25,35,22q4.005-22.995,8-46c13.08-8.68,25.6-10.72,45-10,0.67,1,1.33,2,2,3,3.63,4.73,1.01,13.27,1,21q-1.005,27.99-2,56c-3.19,14.42-.59,30.76-4,46l-15,129q-3,34.995-6,70c17.54,2.15,28.68,12.59,40,21,24.07,17.88,41.27,41.8,57,68,4.51,7.51,4.81,15.92,9,24,3.26,6.28,10.24,11.95,15,17,5.03,5.33,7.75,12.97,12,19,4.62,6.56,11.24,12.6,16,19,13.28,17.85,41.7,53.06,76,42a100.637,100.637,0,0,0,23-11c19.79-13.16,34.76-33.14,48-53,44.87-67.31,88.57-192.47,53-302-36.41-112.15-105.53-206.16-197-263-13.57-8.434-26.72-13.054-44-18-4.76-1.361-15.21-5.074-22-3-12.75,3.895-27.02,17.72-47,13-8.58-2.027-29.94-17.255-31-17-5.91,2.084-7.43,7.6-14,9-4.42-4.288-9.76-5.278-16-8-19.03-8.3-45.76-15.3-60-29v-1h2c7.5-4.439,22.78.624,30-5,0.8-1.021.35-.274,1-2-7.43-5.21-14.21-22.13-23-24a16.02,16.02,0,0,1-7,6c0.38,14.98-11.46,31.424-24,32-9.71-6.492-28.44-2.756-41-6-14.46-3.734-28.23-10.677-40-18-69.59-43.288-123.12-111.641-156-192-10.79-26.357-21.54-79.35-4-108a72.518,72.518,0,0,1,33-28Q2528.505,603,2537,601Zm18,29c-0.96,1.766-1.26,1.68-2,4,2.66,1.9,4.26,6.648,7,8l12,2a123.471,123.471,0,0,1,25,14c29.64,21.288,47.62,55.212,67,87,5.28,8.666,11.85,18.555,16,28,9.1,20.724,18.02,41.48,26,63,3.61,9.726,3.87,25.154,10,33,3.08-4.3,6.57-3.616,7-11-3.72-5.932-2.76-14.65-5-22q-7.005-24-14-48c-24.74-60.1-51.03-99.159-102-133C2589.14,646.463,2572.57,632.443,2555,630Zm-384,67c-23.47-3.074-35.77-12.274-56,1-3.74,2.453-7.36,3.539-10,7-1.66,2.307-.93,4.686-2,8-0.93,2.855-4.46,7.5-5,10-1.53,7.021,6.73,19.623,9,25,4.22,9.986,17.46,37.576,25,42,4.25,2.5,9.93,1.923,14,4,9.14,4.659,17.11,11.519,26,16v-3c-3.61-4.1-22.25-30.476-13-36,8.99,14.285,27.56,33.258,44,40-6.75-11.372-15.88-17.577-16-36h2c4.78,7.642,22.86,28.363,30,33,4.92,3.2,11.03,3.043,15,7,5.36,5.349,5.48,16.9,13,20,12.97,9.779,41.51-9.677,56-8,16.23,1.879,27.69,20.11,37,30,21.15-.85,30.47-23.093,48-29,5.46,4.25,12.93,5.315,19,9,6.6,4.009,12.74,9.708,21,12,5.35-17.058,44.08-12.648,52-1,2.86,4.2,2.69,11.3,7,14,2.22-3.569,14.73-15.033,18-13,12.54,6.15,22.9,17.156,34,25,20.48,14.474,40.94,29.67,62,43,6.46,4.091,36.72,18.52,39,23a143.453,143.453,0,0,0-27,22c-6.86-.593-11.83-3.9-17-6-9.24-3.753-20.23-5.691-30-8-19.79-4.676-39.01,2.847-56,4-0.39-3.55-3.65-32.135-5-34v1h-1c-2.29,4.231-2.7,9.842-5,15-1.83,4.1-5.8,7.731-8,12a80.263,80.263,0,0,0-18-2q1.995-15.5,4-31h-1v-1h-1v1c-12.28,6.6-9.67,27.9-24,33-2.86-4.057-3.75-2.344-8-1V930c2.83-4.06,1.34-19.137-1-22-4.55,6.833-5.42,17.655-10,25-3.05,4.891-9.51,5.668-13,10h-1v-2c-5.02-8.057-2.18-30.59-4-40h-1c-1.02.8-.27,0.355-2,1-2.65,6.165-4.11,13.925-8,19-3.03,3.95-14.89,8.95-24,6-14.74-4.773-27-18.125-34-31-3.26-6-4.53-14.242-12-16-3.78,3.106-9.37,3.708-14,6-36.83,18.244-51.85-15.04-81-20-9.51,13.974-48.11,38.926-74,34v-1h1c7.27-8.683,21.51-9.08,28-19h-1c-2.97,4.507-34.04,15.278-42,17-9.17,1.983-23.72.966-26-5h1v-1c10.91-1.113,29.94-7.286,35-15h-1c-4.59,4.948-32.32-1.165-43,1-34.02,6.893-78.11,1.161-102-9-6.93-2.948-18.21-5.143-21-12,2.92-1.838,2.9-2.739,8-3,14.65,11.6,69.32,1.019,85-3,6.64-1.7,17.94.192,21-5-2.28-1.225-2.25-1.638-6-2-7.6-4.728-38.15-4.035-42-10,3.05-1.651,10.55-4.655,12-8,0.8-1.021.35-.274,1-2-29.64-1.5-53.5-16.319-72-30-5.14-3.8-8.96-10.177-14-14-6.79-5.159-19.22-14.551-21-24a18,18,0,0,0,4-3c7.34,2.513,13.53,10.915,20,15,16.33,10.31,39.85,19.96,63,22v-2c-6.42-4.516-10.18-13.916-12-23h2c3.2,4.9,9.24,10.675,14,14,2.63,1.842,7.24,2.392,9,5,0.67,3,1.33,6,2,9l20,2v-2c-5.14-3.893-8.87-11.107-9-20h2c5.57,15.372,36.6,30.062,48,42,1.75-.631.97-0.193,2-1,2.39-.842,1.64-0.4,3-2-20.21-13.167-33.19-40.8-46-62-1.51-2.492-5.06-6.04-6-9-6.52-20.466,15.13-51.579,24-58,28.91-20.924,61.64-3.921,86,11,7.51,4.6,24.48,11.494,28,19h-7c-3.93,2.413-11.57-.17-17,1-5.03,1.083-12.79,2.854-19,2-1.46-.2-4.21-1.859-7-1-2.23.685-2.52,2.364-6,3-0.88-2.72-1.71-2.939-3-5,3.36-1.906,10.98-4.579,12-9C2171.04,701.582,2171.02,699.727,2171,697ZM1069,740c-9.2-.365-19.46-4.649-30-2l-22,8q-5.5,10.5-11,21c-9.395,30.906,16.41,43.983,29,57,17.19,0.372,48.74-6.054,55-15,3.32-4.743,3.87-10.1,6-16,1.58-4.375,3.92-11.6,3-16-12.43,5.647-24.43,6.466-42,6v-2c2.73-4.42-.49-13.065,1-19C1060.37,752.541,1068.63,750.867,1069,740ZM2299,847c-5.23,7.1-20.06,6.3-24,14h1c7.82,8.191,18.06,12.831,29,18v-2C2310.7,869.159,2304.96,849.859,2299,847Zm416,54c-1.81,1.947-3.74,1.355-6,3-2.92,2.127-6.41,13.106-5,16,1.97,7.162,8.66,10.648,12,17,3.26-1.137,3.48-3.011,6-2,1.8,1.565,1.28,1.966,4,3,4.05-5.468,11.44-5.962,12-15C2729.31,910.283,2734.58,905.26,2715,901Zm-617,38c17.28-.439,53.05-4.152,58,8,2.11,3.532-.56,13.336-1,18q-2.505,25-5,50c-3.36,61.5-14.57,120.28-15,187h1c4.98-8.65,11.75-16.67,17-25,13.12-20.82,24.16-46.15,46-58,29.72-16.12,60.75-3.58,69,24,3.63,12.12,3.88,36.67,1,50q-0.495,13.5-1,27c-4.94,22.91-5.99,50.5-6,76-0.01,17.29-2.88,54.82,12,56,2.6-1.92,6.38-2.12,9-4,13.5-9.68,26.03-43.49,31-62q0.495-18,1-36c7.31-33.71-2.3-79.62,6-112,12.73-8.28,38.23-4.43,54-1,7.14,12.44,1.92,33.8,1,50-2.3,40.49-6,80.04-6,122,0,20.77-3.97,57.28,11,63,1.84,1.24,5.7,1.09,9,1,4.39-4.36,10.34-6.89,14-12,16.64-23.24,25.12-60.26,33-91q2.505-33.99,5-68v-19c4.26-19.36-.66-46.42,4-65,9.31-2.61,45.68-8.45,51,2,4.37,6.12.29,20.25,0,29q-3.495,36.495-7,73h1v-2c7.69-7.77,11.67-19.96,18-29,14.46-20.63,32.93-44.03,54-58,20.58-13.64,47.56-10.18,57,12,7.07,16.61,5.2,58.78,1,78q-1.995,26.49-4,53c-7.57,35-9.61,107.21,3,137,4.5,10.63,13.5,18.24,22,25-0.63,1.75-.19.97-1,2-0.84,2.39-.4,1.64-2,3-12.69,10.01-47.82-7.34-56-13-32.96-22.8-34.12-85.42-23-135,3.93-17.52,2.37-35.52,6-52,3.05-13.85,6.39-59.91-4-64-1.29-.88-2.47-0.89-5-1-5.97,5.77-14.94,8.32-20,15-19.55,25.8-43.22,55.58-52,91v20c-5.38,24.7.3,54.51-5,79-2.83,13.08.26,24.41-4,35-11.02,4.97-31.1,2.35-41,0-6.94-10.96-4.17-28.28-4-45h-1v1c-5.52,5.79-9.17,13.57-14,20-13.16,17.52-45.54,35.03-72,21-6.02-3.19-12.14-6.79-16-12a87.308,87.308,0,0,1-12-23c-2.28-6.95-1.11-17.34-5-23v1c-14.34,14.15-22.7,31.51-43,40-18.39,7.69-37.62.51-46-11-18.23-25.03-20.79-86.12-12-126q0.495-9,1-18c3.54-16.01,11.6-71.26-4-77-1.84-1.24-5.7-1.09-9-1-3.01,2.53-6.81,3.63-10,6-16.38,12.18-27.95,38.84-39,57-3.44,5.66-9.61,12.89-12,19-2.38,6.07.44,36.87,1,43,2.73,30.02,1.57,57.55,8,85,3.78,16.15,9.22,40.54,6,58-10.13,4.78-60.77,15.43-70,2-5-7.27-3-24.22-3-36V1191c0-19.29-2.75-43.61,1-61v-20c0-18.96-1.61-42.23,2-59v-23c5.49-25.35-1.8-62.684,7-85C2091.46,941.929,2095.78,940.677,2098,939ZM567,1267c-2.318,19.71-13.955,39.56-22,55-22.464,43.12-50.449,93.86-98,111-16.625,5.99-44.916,3.17-61-1-54.617-14.15-82.131-33.48-108-76-11.765-19.34-18.409-44.05-25-68-4.287-15.58-3.531-32.87-7-49v-19c-4.53-21.71,1.209-49.75,6-67,12.072-43.46,23.867-79.43,45-113,7.782-12.36,17.22-24.3,26-36q4-3.5,8-7c17.86-23.623,42.387-38.881,73-50,5.922-2.151,26.709-9.012,36-6,11.291,3.661,20.421,22.41,25,33,2.457,5.683,2.98,16.949,8,20,2.764-2.178,4.952-1.676,9-3,24.71-8.081,45.051,5.954,56,21,33.214,45.64,43.3,123.11,38,201h2c7.029-6.72,18.243-10.17,26-16,3.166-2.38,8-12.92,10-14h9c6.819,11.4,21.54,22.53,24,37,2.233,13.13-9.076,21.85-17,26C612.286,1255.27,593.273,1266.86,567,1267ZM2881,956c-9.46,5.694-25.04,3.487-30,14h1c0.33,0.549,21.22,16.723,22,17,4.15-5.724,13.25-8.159,16-15a18.884,18.884,0,0,1-3-4c2.27-1.47,3.01-2.1,4-5C2887.02,960.169,2887.38,956.729,2881,956ZM1685,1155c22.08-.76,50.9-8.51,58,12,2.31,2.85,3.42,14.21,2,20-3.42,13.94-8.93,37.97-25,39-1.36-1.11-3.38-.92-5-2-4.06-2.71-6.06-8.03-9-12-5.67-7.66-12.04-11.29-22-15v6c4.66,7.19,2.07,21.7,3,32,1.66,18.46,4.02,47.76,0,66q-0.495,10.5-1,21c-3.78,16.19-5.98,32.73-12,47-18.4,43.61-46.38,64.1-96,77-14.05,3.65-39.73,7.32-57,3q-13.005-4.005-26-8c-16.18-7.05-33.11-20.61-41-36-12.2-23.82,2.53-55.67,17-66,20.14-14.38,48.67-16.32,66,1,4.91,4.91,15.62,17.43,8,28-1.01,3.97-2.84,5.39-5,8-6.02,2.58-12.6,3.63-19,1-2.44-5.71-4.78-13.89-11-16-2.07-1.66-4.16-1.91-8-2-9.36,7.25-18.21,8.78-18,26,1,2.67,2,5.33,3,8,5.07,8.3,14.67,16.1,24,20,35.68,14.91,73.29-10.52,83-33,20.77-48.1,4.75-122.6,4-179-33.82-.41-65.44.64-93,8-16.79,4.48-34.1,11.92-53,10-3.64-4.91-11.01-12.18-5-21,5.08-7.45,20.11-7.22,30-10,27.51-7.74,58.44-12.71,87-20,8.44-2.15,25.67-.98,32-5,2.94-4.62,1.11-29.27,1-37,4.71-7.88-.15-23.2,2-33,2.36-10.75,1.23-22.72,4-34,2.19-8.93,4.93-19.22,7-28h-9c-8.08,5.17-39.85-6.32-46-9-20-8.71-36.17-17.99-66-18h-15c-30.86,7.12-53.16,11.18-66,36-4.74,9.16-7.24,25.59-2,37,3.27,7.12,9.81,10.81,15,16a100.81,100.81,0,0,1,23,2c2.05,3.24,2.99,4.03,3,10-6.52,5.06-11.34,13.02-18,18-14.03,10.5-27.63,19.52-43,29-5.85,3.61-15.68,13.12-27,10-13.44-3.71-16.74-17.68-21-31-15.76-49.27,6.3-86.7,28-114,5.87-7.38,15.98-12.67,24-18,27.5-18.291,82.15-39.806,132-28,31.66,7.5,59.33,20.9,96,21,28.53,0.076,45.45-11.1,66-19,12.63-4.856,21.89-9.3,32,0,0.19,15.668-7.39,18.031-13,27-4.71,7.53-7.29,19.24-10,28C1681.78,1064.3,1685.15,1110.21,1685,1155Zm111-166c17.62-.448,29.57,3.474,36,14,14.28,23.39-4.1,48.41-23,53-27.61,6.71-51.1-23.25-40-48,3.1-6.91,11.87-14.085,19-17C1790.71,989.893,1793.86,990.353,1796,989Zm557,0c17.05-.483,29.58,3.052,36,13,15.15,23.49-2.53,48.88-23,54-28.45,7.12-50.94-25.87-39-49C2333.32,994.773,2342.47,996.074,2353,989ZM547,1238l4-34c2.289-10.63.992-37.84-1-47q-0.5-16.005-1-32c-6.838-30.79-6.831-62.13-21-85-5.211-8.41-13.044-12.42-20-19-21.946-1.68-33.236,7.88-43,21-3.206,4.31-8.11,8.31-11,13-13.43,21.79-21.068,66.81-12,101C455.264,1206.02,483.277,1238.48,547,1238ZM421,1042c-5.157,4.13-12.447,5.31-18,9-12.8,8.52-24.842,23.86-33,37-40.291,64.89-54.79,192.74-11,265,10.73,17.71,19.62,35.22,37,46,22.672,14.06,45,6.01,63-6,29.268-19.53,45.289-48.76,62-81,6.383-12.32,14.846-27.26,17-43h-2q-13.5-1.995-27-4c-15.207-4.54-31.063-10.67-43-19-23.974-16.73-41.111-42.19-51-73-2.811-8.76-1.835-16.13-4-26-2.417-11.02-3.788-32.41-1-45,2.238-10.1,2.12-21.56,5-32l8-28h-2Zm100,7c1.262,1.36,1.365,1.77,2,4h-1v-1C521.248,1050.93,521.4,1051.05,521,1049Zm1406,35c9.46-.44,18.47-0.63,21,6,2.09,2.21,2.75,4.84,3,9a202.98,202.98,0,0,1-16,16c-0.1,26.41,27.81,47.88,40,64,32.29,42.71,72.69,76.11,87,137,4.93,20.97-5.43,45.42-12,56-12.47,20.09-28.48,33.04-53,41-45.59,14.8-106.41-18.08-120-45h-2c-2.52,9.28-9.95,15.23-15,22-13.03,17.46-41.27,40.46-72,27-9.3-4.08-17.86-13.66-23-22-11.43-18.56-15.4-69.34-9-99,2.76-12.78-.48-26.52,2-38,2.94-13.6-.7-28.48,2-41v-25c0-20.46-.06-39.9,4-55,13.5-6.89,37.75-3.29,53,0,6.75,10.88,4.52,36.74,1,53l-6,120c-0.33,25-5.04,62.91,20,63,3.26-2.64,6.61-3.43,9-7q1.995-7.005,4-14c5.53-9.34,13.35-18.4,18-29,12.38-28.23,15.61-59.08,24-92,2.94-11.52,5.71-26.46,6-40,0.12-5.54,1.72-12.94,0-16-3.21-9.15-12.12-15.72-16-25-7.6-18.19,1.27-45.54,13-54,6.57-4.74,16.36-7.72,25-10C1919.14,1084.91,1923.89,1085.95,1927,1084ZM941,1297c-0.649,33.26,8.333,56.33,22,75,6.646,9.08,18.852,18.88,36,14,34.25-9.75,59.48-42.04,73-73,1.91-4.38,5.58-9.09,10-11,3-.67,6-1.33,9-2v-8c4.13-6.9.07-19.15,2-28,6.73-30.8.22-68.65,7-100,3.07-14.19-6.39-42.4,6-47,8.97-7,35.73-2.33,46,0,0.33,1,.67,2,1,3,3.14,4.06,2.59,17.83,1,25-2.11,9.53-.64,20.44-3,31-3.12,13.97-4.52,30.78-5,46h1v-2c7.01-5.81,13.57-21.9,19-30,15.55-23.22,44.54-59.84,76-66,31.91-6.25,43.04,38.61,38,72-4.55,30.19-2.67,62.94-9,92q-0.495,12-1,24c-3.38,15.72-4.7,51.03-1,68,3.39,15.56,4.76,30.55,12,42,4.2,6.65,15.75,10.3,17,19a24.963,24.963,0,0,0-5,4c-70.84,5.31-94.82-59.47-79-131,3.31-14.96,1.91-30.23,5-44q3-31.995,6-64c0.76-13.54,1.28-27.01-11-28-4.93,4.02-11.06,6.2-16,10-6.85,5.27-11.89,14.87-17,22-15.4,21.47-32.8,45.94-40,75q-0.495,21.495-1,43c-6,27.63-1.28,62.51-7,89-10.22,5.95-31.59,3.49-42,1-8.25-13.05-4-43.26-3-63h-1c-17.6,30.66-43.75,53.75-81,65-16.244,4.91-41.544,5.52-57-1-15.774-6.65-31.571-19.82-41-33-12.122-16.95-19.463-37.39-25-61-3.978-16.96-.432-47.31,3-62,2.386-10.22,1.312-18.36,4-28,11.087-39.75,24.474-80.72,54-102,10.824-7.8,23.764-12.59,39-16,15.786-3.53,29.22,3.79,37,9,23.72,15.89,49.82,62.23,36,105-10.1,31.25-28.87,58.87-61,68C978.291,1303.75,956.453,1298.22,941,1297ZM681,1121c24.926-.58,30.028,1.28,42,14,0.076,12.21-1.9,19.08-2,31h2c11.976-18.12,57.539-25.72,83-15,17.082,7.2,30.715,21.93,40,37,14.046,22.8,24.7,75.73,16,114-3.471,15.27-4.271,31.5-9,46-10.643,32.64-25.52,65.15-51,83-15.514,10.87-48.106,24.26-76,15-9.512-3.16-16.432-9.99-24-15v55c-3.048,4.97-1,18.94-1,26,0,21,.744,45.47-3,62l-7,6c-8.288,3.31-38.737,2.91-46,0-6.066-12.74-3.655-54.08,0-71,2.4-11.1-.151-23.04,2-33q1.5-36.99,3-74c3.139-14.44,2.81-34.78,3-50v-22c2.043-9.4-1.314-23.35,1-34,3.535-16.26,2-42.38,2-60q0.5-24,1-48c0-11.56-1.129-26.14,1-36,2.806-13-3.443-22.9,8-27C669.657,1122.29,676.908,1123.62,681,1121Zm265,140c11.629,0.67,32.944,6.42,45,3,13.75-3.9,25.76-19.43,31-32,9.79-23.5-3.14-70.68-17-80-4.97-3.35-10.5-4.13-19-4-3.85,3.85-8.914,6.38-12,11C960.6,1179.06,947.687,1229.83,946,1261Zm1816-99c-1.07.75-.95,0.6-3,1-6.22,8.19-14.45,13.61-19,24-11.31,25.85-12.82,57.07-20,88-2.77,11.92-.45,24.78-3,36v17c-0.01,25.54,3.96,54.08,28,55,3.08-2.38,7.79-2.77,11-5,10.82-7.52,21.65-21.22,27-34,6.26-14.95,2.14-33.79,6-52,6.05-28.52,7.38-99.98-5-120-2.72-4.39-7.38-6.52-11-10h-11ZM758,1173c-4.215,3.37-9.709,4.81-14,8-11.21,8.33-22.382,24.36-28,38-5.3,12.88-.7,29.53-4,45-2.117,9.93.377,21.82-2,33-3.089,14.54-2.961,33.15-3,49-0.029,11.72-4.432,36.69,0,47,4.864,11.32,19.945,19.82,33,23,20.333,4.96,35.27-19.69,42-30,25.828-39.56,31.843-114.41,14-169C789.555,1197.28,784.03,1172.82,758,1173Zm-20,27c0.8,1.02.355,0.27,1,2h-1v-2Zm1186,0c-0.24,12.17-4.17,23.89-7,34-7.75,27.72-13.34,53.82-20,81h2c7.53-9.8,48.1-18.75,54-2,0.8,1.18.77,1.68,1,4-4.6,4.53-7.53,9.17-14,12-10.38,4.54-27.19,6.17-31,17-2.01,2.79-.73,8.81,1,11,9.06,29.93,70.06,26.27,85,4,8.4-12.52,4.67-37.62,0-52-8.6-26.48-20.36-51.17-35-72-4.23-6.02-10.63-11.23-15-17C1939.78,1213.1,1932.76,1202.98,1924,1200Zm838,255c-2.42,1.42-6.39.16-10,1q-18,3.495-36,7c-31.95,9.67-62.66,19.25-88,35-13.5,8.39-37.99,23.21-24,46,17.72,28.88,61.12,39.46,98,50,9.85,2.81,33.6,9.73,45,3,21.9-12.92,20.73-46.96,27-76v-19c2.6-12.22,2.36-34.74,0-47h-12Z" transform="translate(-244.344 -458)"/>
</svg>
