<svg xmlns="http://www.w3.org/2000/svg" viewBox="0 0 447.562 448.563" role="img" aria-label="OpenFishing">
  <path fill-rule="evenodd" fill="currentColor" d="M432,141c20.4,48.649,21.091,120.93,0,170-26.666,62.04-75.916,107.381-143,129-16.609,5.353-30.956,6.024-53,9-17.978.354-64.689-6.02-61-5a335.355,335.355,0,0,1-44-16C65.178,399.275,26.481,348.593,6,274c-6.42-23.381-9.762-63.122-3-90,3.849-15.3,7.16-31.082,13-45C39.972,81.871,84.425,38.559,142,15c15.409-6.305,32.615-8.958,50-13C211.308-1.516,377.692-11.651,432,141ZM370,292c0.9-5.882,2.451-6.12,2-12-25.675-.775-40.567,4.829-57,12-5.852,2.554-17.012,3.693-20,9,3.358,2.157,5.671,5.938,9,8,9.829,6.089,25.2,10.165,37,13,1.589-2.632,5.269-10.445,8-12,3.891,3.849,16.991,11.35,14,18-5.451,18.825-59.582,24.093-87,18-14.037-3.12-29.095.561-42-3-7.55-2.083-20.988-7.463-28-6-10.424,2.174-24.584,4.038-28,13-3.829,5.716,2.03,12.968,3,18-13.246,12.219-38.746,27.157-61,26v-1h-1c-2.113-15.909-2.137-24.023,6-35,4.437-5.986,16.057-9.171,18-17-1.5-1.552-.777-1.838-3-3-4.295,5.742-12.442,7.442-19,11-9.72,5.274-33.434,18.82-37,29,5.1,2.98,8.42,7.691,13,11,9.259,6.69,19.255,13.061,29,19,20.238,12.334,45.677,16.848,72,23,26.924,6.292,65.847-1.68,85-8,66.449-21.926,107.828-60.909,134-123,26.381-62.586,12.953-122.414,2-149C393.452,88.987,349.369,47.517,283,26c-29.52-9.57-78.1-13.018-111-3-20.755,6.321-41.115,14.359-58,25-8.511,5.364-19.008,17.7-28,21,1.021,0.8.274,0.355,2,1,7.158,4.9,18.72,4.606,27,8a218.5,218.5,0,0,1,46,26c8.536,6.266,17.715,25.032,29,26,5.111,3.2,12.513,2.15,19,4l51,14c39.987,16.427,83.61,49.7,108,82,8.436,11.172,25.059,22.115,26,40-6.227,8.472-6.841,21.629-20,23C372.82,292.2,372.319,292.227,370,292ZM79,76c-4.176,6.458-11.439,10.9-16,17-13.577,18.146-28.484,39.569-35,64h1c3.477-3.36,8.051-5.061,12-8,15.565-11.582,23.936-30.675,32-50C75.013,94.176,82.029,81.618,79,76ZM22,175c-0.479,13.73-4.788,25.276-5,41h1v-2c10.552-7.195,17.052-20.4,29-28v-1H39c-2.236,1.844-12,7-12,7-2.787-3.553-3.061-10.792-3-17H22Zm203,7c-6.426,4.916-15.452,6.427-22,11-7.95,5.552-15.39,16.862-25,20-16.94,5.532-39.017-.417-57,4-31.513,7.74-59.088,25.138-79,45-5.727,5.713-16.359,11.719-17,22,1.763,2.626,1.069,5.333,4,7,15.191-25.239,59.417-53.262,90-64,5.51-1.935,39.358-5.837,44-3,4.185,1.414,5.229,4.328,8,7,0.342,12.694-1.573,37.269,2,47,5.55,15.114,32.512,38.468,48,44v-2c-52.989-14.123-43.8-125.494,7-137v-1h-3Zm76,59c0.073-9.831,4.432-9.961,7-16h-2c-4.547-3.66-10.391-2.429-17-2-3.676,5.473-7.606,7.708-8,17,4.7,6.479,3.654,13.839,15,14,3.448,2.181,9.367-.49,14-1a129.822,129.822,0,0,0,7-12h-1C312.507,243.365,304.842,241.57,301,241Z" transform="translate(0 -0.438)"/>
</svg>
